HIERARCHY
ROOT Hips
{
	OFFSET 0.000000 0.000000 0.000000
	CHANNELS 6 Xposition Yposition Zposition Zrotation Yrotation Xrotation 
	JOINT LHipJoint
	{
		OFFSET 0.000000 0.000000 0.000000
		CHANNELS 3 Zrotation Yrotation Xrotation
		JOINT LeftUpLeg
		{
			OFFSET 1.363060 -1.794630 0.839290
			CHANNELS 3 Zrotation Yrotation Xrotation
			JOINT LeftLeg
			{
				OFFSET 2.448110 -6.726130 0.000000
				CHANNELS 3 Zrotation Yrotation Xrotation
				JOINT LeftFoot
				{
					OFFSET 2.562200 -7.039590 0.000000
					CHANNELS 3 Zrotation Yrotation Xrotation
					JOINT LeftToeBase
					{
						OFFSET 0.157640 -0.433110 2.322550
						CHANNELS 3 Zrotation Yrotation Xrotation
						End Site
						{
							OFFSET 0.000000 0.000000 0.000000
						}
					}
				}
			}
		}
	}
	JOINT RHipJoint
	{
		OFFSET 0.000000 0.000000 0.000000
		CHANNELS 3 Zrotation Yrotation Xrotation
		JOINT RightUpLeg
		{
			OFFSET -1.305520 -1.794630 0.839290
			CHANNELS 3 Zrotation Yrotation Xrotation
			JOINT RightLeg
			{
				OFFSET -2.542530 -6.985550 0.000000
				CHANNELS 3 Zrotation Yrotation Xrotation
				JOINT RightFoot
				{
					OFFSET -2.568260 -7.056230 0.000000
					CHANNELS 3 Zrotation Yrotation Xrotation
					JOINT RightToeBase
					{
						OFFSET -0.164730 -0.452590 2.363150
						CHANNELS 3 Zrotation Yrotation Xrotation
						End Site
						{
							OFFSET 0.000000 0.000000 0.000000
						}
					}
				}
			}
		}
	}
	JOINT LowerBack
	{
		OFFSET 0.000000 0.000000 0.000000
		CHANNELS 3 Zrotation Yrotation Xrotation
		JOINT Spine
		{
			OFFSET 0.028270 2.035590 -0.193380
			CHANNELS 3 Zrotation Yrotation Xrotation
			JOINT Spine1
			{
				OFFSET 0.056720 2.048850 -0.042750
				CHANNELS 3 Zrotation Yrotation Xrotation
				JOINT Neck
				{
					OFFSET 0.000000 0.000000 0.000000
					CHANNELS 3 Zrotation Yrotation Xrotation
					JOINT Neck1
					{
						OFFSET -0.054170 1.746240 0.172020
						CHANNELS 3 Zrotation Yrotation Xrotation
						JOINT Head
						{
							OFFSET 0.104070 1.761360 -0.123970
							CHANNELS 3 Zrotation Yrotation Xrotation
							End Site
							{
								OFFSET 0.000000 0.000000 0.000000
							}
						}
					}
				}
				JOINT LeftShoulder
				{
					OFFSET 0.000000 0.000000 0.000000
					CHANNELS 3 Zrotation Yrotation Xrotation
					JOINT LeftArm
					{
						OFFSET 3.362410 1.200890 -0.311210
						CHANNELS 3 Zrotation Yrotation Xrotation
						JOINT LeftForeArm
						{
							OFFSET 4.983000 -0.000000 -0.000000
							CHANNELS 3 Zrotation Yrotation Xrotation
							JOINT LeftHand
							{
								OFFSET 3.483560 -0.000000 -0.000000
								CHANNELS 3 Zrotation Yrotation Xrotation
								JOINT LeftFingerBase
								{
									OFFSET 0.000000 0.000000 0.000000
									CHANNELS 3 Zrotation Yrotation Xrotation
									JOINT LeftHandIndex1
									{
										OFFSET 0.715260 -0.000000 -0.000000
										CHANNELS 3 Zrotation Yrotation Xrotation
										End Site
										{
											OFFSET 0.000000 0.000000 0.000000
										}
									}
								}
								JOINT LThumb
								{
									OFFSET 0.000000 0.000000 0.000000
									CHANNELS 3 Zrotation Yrotation Xrotation
									End Site
									{
										OFFSET 0.000000 0.000000 0.000000
									}
								}
							}
						}
					}
				}
				JOINT RightShoulder
				{
					OFFSET 0.000000 0.000000 0.000000
					CHANNELS 3 Zrotation Yrotation Xrotation
					JOINT RightArm
					{
						OFFSET -3.136600 1.374050 -0.404650
						CHANNELS 3 Zrotation Yrotation Xrotation
						JOINT RightForeArm
						{
							OFFSET -5.241900 -0.000000 -0.000000
							CHANNELS 3 Zrotation Yrotation Xrotation
							JOINT RightHand
							{
								OFFSET -3.444170 -0.000000 -0.000000
								CHANNELS 3 Zrotation Yrotation Xrotation
								JOINT RightFingerBase
								{
									OFFSET 0.000000 0.000000 0.000000
									CHANNELS 3 Zrotation Yrotation Xrotation
									JOINT RightHandIndex1
									{
										OFFSET -0.622530 -0.000000 -0.000000
										CHANNELS 3 Zrotation Yrotation Xrotation
										End Site
										{
											OFFSET 0.000000 0.000000 0.000000
										}
									}
								}
								JOINT RThumb
								{
									OFFSET 0.000000 0.000000 0.000000
									CHANNELS 3 Zrotation Yrotation Xrotation
									End Site
									{
										OFFSET 0.000000 0.000000 0.000000
									}
								}
							}
						}
					}
				}
			}
		}
	}
}
MOTION
Frames: 7
Frame Time: 0.008333
-7.536692 17.857561 3.187432 -7.580749 45.842129 9.665008 -1.825645 2.466917 3.097486 2.113305 7.275353 -9.872240 0.427799 6.328956 19.100616 -5.702050 23.405788 -5.656632 0.848700 -5.875500 -16.423700 5.473327 0.205639 -0.815470 13.923363 27.717054 -26.173602 -2.971612 -9.645934 30.354447 -1.177200 20.016605 6.112914 -1.587100 -7.947300 22.554000 -10.365940 -10.594989 3.901256 -6.633480 -14.843414 0.024983 7.026879 -7.400112 0.243990 1.819843 22.859683 -2.784858 -13.914514 31.344057 5.425318 -2.848500 14.080300 7.474300 1.015475 4.064019 -1.093105 165.700759 -38.393696 -176.788287 22.991659 -31.185352 -6.370960 -0.649771 -0.126173 22.470193 -46.709937 -8.674309 -171.523200 -7.125000 0.000000 0.000000 -39.787800 -69.687100 -155.180100 1.925404 -6.122519 -1.586547 28.242798 41.218138 -22.945746 -129.897447 53.707369 -91.014733 0.420970 -0.502414 14.435337 -82.913214 25.634842 -75.625000 7.125000 0.000000 0.000000 -31.849800 40.322700 -47.968800 
-7.531578 17.860670 3.170483 -7.411606 45.867864 9.836394 -1.854600 2.442680 3.098946 1.934238 7.201742 -9.922726 0.399185 6.310942 19.048881 -5.711503 23.436707 -5.859518 0.819300 -5.775500 -16.134300 5.472255 0.224881 -0.805244 13.693051 27.567055 -26.313966 -2.961057 -9.635834 30.314111 -1.176743 20.044165 6.162115 -1.586900 -7.946700 22.552400 -10.308812 -10.556161 3.900755 -6.650617 -14.779729 0.218516 6.966873 -7.379990 0.275350 1.637789 22.790943 -3.352453 -13.674720 31.353251 5.805124 -2.701400 14.031400 7.627200 1.027335 4.087434 -1.098341 165.598589 -38.390825 -176.567116 23.019514 -31.207343 -6.381054 -0.645919 -0.134967 22.105792 -46.268349 -8.725405 -171.600900 -7.125000 0.000000 0.000000 -38.908800 -69.764600 -155.721300 1.937571 -6.104837 -1.581041 28.146752 41.269231 -22.960353 -129.661074 53.788812 -90.817013 0.422370 -0.497963 14.002160 -82.916361 25.680556 -75.648900 7.125000 0.000000 0.000000 -31.830000 40.359700 -47.931800 
-7.527065 17.868894 3.154538 -7.293621 45.923050 9.973991 -1.870857 2.422405 3.096922 1.783966 7.163002 -10.000713 0.379584 6.296000 19.001189 -5.733106 23.509653 -5.909814 0.844300 -5.860900 -16.381400 5.481327 0.237966 -0.793077 13.485782 27.488311 -26.431225 -2.949965 -9.623255 30.269783 -1.176362 20.016753 6.246141 -1.621500 -8.028600 22.800900 -10.326869 -10.556830 3.865971 -6.455873 -14.756176 0.530900 6.987708 -7.391927 0.400514 1.053651 22.818391 -4.140397 -13.488730 31.493533 6.005888 -2.500900 14.027900 7.721000 1.029257 4.124033 -1.112267 165.235600 -38.432888 -176.260929 22.965694 -31.115701 -6.343695 -0.645397 -0.141303 22.053751 -45.875388 -8.722174 -171.721300 -7.125000 0.000000 0.000000 -38.015700 -69.772700 -156.327200 1.963698 -6.088795 -1.568338 27.750425 41.701510 -23.167010 -129.334966 53.893121 -90.550606 0.422608 -0.494397 13.663776 -82.677773 25.441407 -75.018500 7.125000 0.000000 0.000000 -31.690900 39.804700 -47.739700 
-7.524959 17.874610 3.140197 -7.242748 45.986646 10.038488 -1.879898 2.412900 3.088113 1.677553 7.276141 -10.119616 0.380803 6.292519 18.975994 -5.759304 23.607185 -5.663846 0.947300 -6.198700 -17.362200 5.490433 0.244002 -0.785404 13.353128 27.459479 -26.483517 -2.938163 -9.607709 30.212586 -1.181511 19.965729 6.208142 -1.571300 -7.909500 22.439400 -10.351278 -10.570144 3.903635 -6.304353 -14.767488 0.693739 7.032733 -7.408433 0.452670 0.778564 22.903492 -4.392756 -13.514349 31.653150 6.024565 -2.436100 14.076000 7.747100 1.022363 4.142595 -1.114909 165.027341 -38.611847 -176.027412 22.860186 -30.978063 -6.283918 -0.647754 -0.141242 22.037139 -45.720398 -8.546824 -171.938400 -7.125000 0.000000 0.000000 -37.306900 -69.579700 -156.964500 1.976743 -6.087707 -1.565307 27.598131 42.000055 -23.135089 -129.055447 53.987527 -90.325010 0.423990 -0.486137 13.164677 -82.488117 25.000813 -74.376800 7.125000 0.000000 0.000000 -31.678300 39.156600 -47.766600 
-7.524056 17.876215 3.123850 -7.254674 46.073655 10.058364 -1.888029 2.399301 3.078255 1.617294 7.415114 -10.286825 0.381390 6.296806 18.984737 -5.745311 23.549161 -5.680776 0.964400 -6.252600 -17.519200 5.488188 0.251140 -0.778248 13.273032 27.371969 -26.555585 -2.922653 -9.584881 30.134710 -1.185398 19.935283 6.180720 -1.472900 -7.668900 21.712800 -10.221215 -10.522024 3.970285 -6.423187 -14.709924 0.716052 6.947303 -7.374565 0.387836 1.047640 22.909853 -3.981015 -13.618063 31.575981 5.825215 -2.545700 14.083300 7.663900 1.023714 4.127188 -1.118098 165.264883 -38.649994 -176.123488 22.776507 -30.902272 -6.241628 -0.643789 -0.142208 21.732834 -45.309967 -8.370253 -172.215700 -7.125000 0.000000 0.000000 -36.079500 -69.400400 -157.930600 1.969430 -6.101065 -1.573914 27.932495 41.880255 -22.858225 -128.782862 54.094355 -90.093951 0.424142 -0.477698 12.639341 -82.436734 24.758130 -74.127700 7.125000 0.000000 0.000000 -31.715300 38.877600 -47.849900 
-7.523454 17.879123 3.104795 -7.254507 46.133996 10.135603 -1.891902 2.366903 3.067345 1.553797 7.464088 -10.507719 0.370786 6.328350 19.101368 -5.635083 23.136765 -6.365045 0.745500 -5.515300 -15.384400 5.486163 0.267107 -0.773205 13.156855 27.275576 -26.665619 -2.891727 -9.535647 29.981496 -1.183660 19.904284 6.321184 -1.446500 -7.603000 21.514500 -10.126145 -10.447370 3.986622 -6.530841 -14.611310 0.758228 6.869659 -7.321907 0.355659 1.387587 22.861935 -3.662254 -13.687187 31.444646 5.723732 -2.645700 14.056400 7.627300 1.025434 4.112110 -1.132410 165.479228 -38.541428 -176.311257 22.606811 -30.719819 -6.154212 -0.639070 -0.147596 21.533743 -44.864484 -8.427377 -172.278100 -7.125000 0.000000 0.000000 -35.226300 -69.480100 -158.437600 1.960621 -6.107887 -1.576428 28.314440 41.799629 -22.664489 -128.447217 54.225269 -89.806326 0.420727 -0.474264 12.308781 -82.178952 24.556577 -73.449000 7.125000 0.000000 0.000000 -31.530400 38.304600 -47.565800 
-7.522351 17.886344 3.083635 -7.235394 46.228748 10.255373 -1.885618 2.327836 3.039550 1.475905 7.547286 -10.831728 0.385295 6.403170 19.320153 -5.520130 22.722658 -6.697592 0.605100 -4.979200 -13.849300 5.493465 0.290693 -0.764539 13.009114 27.128230 -26.773622 -2.838690 -9.455066 29.722377 -1.181915 19.822111 6.556661 -1.474600 -7.673200 21.725800 -10.133718 -10.430587 4.016610 -6.418036 -14.587706 0.823310 6.908197 -7.311303 0.364936 1.380515 22.834334 -3.743630 -13.649344 31.429212 5.829052 -2.624900 14.039900 7.666400 1.017156 4.121633 -1.146199 165.466035 -38.502893 -176.523141 22.397906 -30.463536 -6.041144 -0.632391 -0.163985 21.178985 -44.278076 -8.850033 -172.043700 -7.125000 0.000000 0.000000 -34.727500 -69.972700 -158.400300 1.961661 -6.103386 -1.570296 28.337732 41.998080 -22.597305 -128.191260 54.318720 -89.595851 0.417735 -0.476234 11.728079 -81.555410 24.521102 -72.074500 7.125000 0.000000 0.000000 -30.940900 37.291600 -46.592600 
